<svg xmlns="http://www.w3.org/2000/svg" width="602.362" height="434.976" version="1"><path fill="#e7394c" d="M191.88 17.71v399.3h5.156V17.71h-5.157zm197.715 0v399.3h5.157V17.71h-5.157z"/><path fill="#0068b3" d="M579.316 17.71v399.3h5.158V17.71h-5.158zm-561.6.085v399.3h5.158v-399.3h-5.157z"/><path fill="#cdc300" d="M323.06 17.71v399.3h5.157V17.71h-5.158zm128.084.085v399.3h5.158v-399.3h-5.158zm-382.537.172v399.3h5.158v-399.3h-5.158z"/><path fill="#7fd1f0" d="M93.794 17.71v399.3h5.158V17.71h-5.158zm201.928 0v399.3h5.158V17.71h-5.158z"/><path fill="#ffdf57" d="M136.346 17.71v399.3h5.158V17.71h-5.158zm359.843.257v399.3h5.15v-399.3h-5.16z"/><path fill="#ebdb5f" d="M234.774 17.71v399.3h5.158V17.71h-5.158z"/><path fill="#009ee2" d="M260.305 17.71v399.3h5.158V17.71h-5.158zm262.62 0v399.3h5.07V17.71h-5.07z"/><path fill="#f59e4b" d="M355.295 17.71v399.3h5.158V17.71h-5.158z"/><path fill-rule="evenodd" d="M294.347 92.84c-14.136 0-27.08 6.617-27.08 22.61 0 9.762 6.727 16.27 19 18.224l13.754 2.15c4.93.838 7.48 2.58 7.48 5.93 0 .72-.2 1.375-.43 1.978-.11.3-.18.586-.34.86-1.45 2.458-4.75 3.788-7.82 4.383-.68.133-1.42.196-2.06.258-.63.062-1.17.086-1.72.086-.98 0-2 0-2.92-.09-.92-.1-1.72-.25-2.58-.43-5.14-1.11-9.34-3.83-13.67-7.74l-12.63 8.16c7.89 8.62 16.21 12.49 25.71 13.32 1.36.12 2.72.17 4.13.17 1.55 0 3.14-.03 4.81-.17.84-.07 1.73-.15 2.58-.26 11.08-1.49 22.95-7.05 22.95-23.21 0-3.96-1.06-7.06-2.92-9.55-.37-.5-.85-.93-1.29-1.38-4.34-4.48-11.69-6.58-19.94-7.91l-6.27-1.03c-6.32-1.02-9.2-2.83-9.2-6.36 0-4.28 5.56-6.71 9.37-6.71 6.1 0 11.83 2.392 16.08 6.53.61.59 1.176 1.23 1.72 1.89l12.55-9.023c-7.435-8.277-18.26-12.72-29.225-12.72zm69.373 0c-15.484 0-25.792 9.217-30.002 21.664-.35 1.037-.68 2.102-.945 3.18-.795 3.237-1.204 6.572-1.204 10.058 0 16.27 9.45 30.828 25.96 34.214 2.35.483 4.92.773 7.56.773 11.16 0 20.97-6.62 26.65-16.94l-13.07-6.28c-2.6 5.95-9.12 9.28-13.58 9.28-13.02 0-16.94-11.39-16.94-21.06 0-.93.03-1.81.08-2.67.83-12.94 7.7-18.31 16.25-18.31 5.04 0 10 2.9 12.72 7.73.39.69.74 1.47 1.03 2.23l13.24-6.62c-6.14-10.98-14.75-17.28-27.77-17.28zM17.717 94.647v66.192H43.42c20.18 0 33.697-9.58 33.697-33.1S63.6 94.64 43.42 94.64H17.717zm69.372 0v66.192h51.49v-12.81h-34.99v-15.65h30.08v-12.81h-30.08v-12.03h32.15v-12.9H87.09zm60.17 0V137.8c0 18.128 15.38 24.93 28.02 24.93 12.74 0 28.11-6.802 28.11-24.93V94.646H186.8v41.78c0 7.436-2.87 12.893-11.52 12.893-1.07 0-2.025-.1-2.922-.26-6.283-1.15-8.51-6.13-8.51-12.64V94.64h-16.59zm63.61 0v12.895h17.28v53.298h16.59v-53.3h17.28V94.647h-51.15zm187.74 0v66.192h16.5v-27.86h24.67v27.85h16.51V94.64h-16.5v23.81h-24.67V94.64h-16.5zm70.49 0v66.192h51.58v-12.81H485.7v-15.65h30v-12.81h-30v-12.03h32.15v-12.9h-48.74zm-434.8 14.01h9.37c12.46 0 16.93 8.39 16.93 19.085 0 10.69-4.48 19.17-16.85 19.17H34.3v-38.254zM267 163.503c-21.105 0-33.525 16.31-33.525 34.9 0 18.6 12.42 34.988 33.526 34.988s33.44-16.38 33.44-34.98c0-18.59-12.33-34.9-33.44-34.9zm-249.29 1.805v66.278h15.04v-41.692h.17l24.243 41.692h16.59v-66.278H58.72v42.38h-.17l-24.157-42.38H17.717zm87.164 0L80.47 231.5h17.622l3.353-10.4h24.5l3.266 10.4h17.8L122 165.308h-17.11zm43.5 0v12.895h17.28v53.383h16.59v-53.383h17.28v-12.895h-51.15zm58.623 0v66.278h16.59v-66.278H207zm103.416 0v66.278h15.044v-41.692h.17l24.24 41.692h16.595v-66.278h-15.13v42.38h-.17l-24.07-42.38h-16.68zm87.167 0l-24.5 66.192h17.71l3.352-10.4h24.413l3.35 10.4H439.7l-25.01-66.192h-17.11zm48.74 0v66.278h42.47v-14.012h-25.88v-52.266h-16.59zM267 177.428c12.276 0 16.85 10.564 16.85 20.976 0 10.23-4.574 21.06-16.85 21.06-13.014 0-16.934-11.387-16.934-21.06 0-.93.03-1.803.083-2.665.83-12.93 7.78-18.31 16.85-18.31zm-153.444 4.127h.17l8.165 27.337H105.3l8.25-27.337zm292.62 0h.254l8.166 27.337h-16.59l8.164-27.337zm-113.3 52.61c-21.11 0-33.53 16.395-33.53 34.987 0 18.592 12.42 34.9 33.524 34.9 21.11 0 33.44-16.308 33.44-34.9s-12.33-34.987-33.44-34.987zm-275.17 1.89v66.193H47.8c2.103 0 4.127-.09 6.017-.258 13.23-1.183 21.06-6.694 21.06-18.654 0-3.66-1-6.642-2.75-8.94-.29-.383-.614-.685-.945-1.032-2.98-3.12-7.48-4.794-12.55-5.157v-.172c9.016-2.046 13.84-6.582 13.84-15.044 0-12.36-9.05-16.93-22.44-16.93h-32.32zm67.05 0v66.193h16.59v-66.192H84.77zm29.4 0v66.193h30.086c2.106 0 4.13-.09 6.02-.258 13.235-1.183 21.06-6.694 21.06-18.654 0-3.66-1-6.642-2.75-8.94-.29-.383-.61-.685-.943-1.032-2.98-3.12-7.48-4.794-12.55-5.157v-.172c9.01-2.046 13.84-6.582 13.84-15.044 0-12.36-9.05-16.93-22.44-16.93h-32.32zm67.05 0v66.193h42.38v-14.012H197.8v-52.18h-16.59zm51.664 0v66.193h16.59v-66.192h-16.59zm98.083 0v12.81h17.28v53.383h16.59v-53.383h17.28v-12.81h-51.15zm58.627 0v66.193h16.59V274.31h24.586v27.938h16.594v-66.192h-16.59v23.726h-24.59v-23.726h-16.59zm70.576 0v66.193h51.495v-12.894h-34.98v-15.56h30.09V260.9h-30.08v-12.035h32.24v-12.81h-48.74zm61.55 0v66.193h16.507v-19.256l9.973-10.143 18.05 29.39h18.397l-24.84-41.09 24.07-25.1h-21.92l-23.727 26.39v-26.39h-16.5zM292.89 248.09c12.27 0 16.847 10.648 16.847 21.063 0 10.23-4.576 20.975-16.848 20.975-13.02 0-16.94-11.306-16.94-20.975 0-.93.03-1.89.08-2.75.83-12.932 7.78-18.31 16.85-18.31zm-259.353.174H47.29c5.485 0 8.597 1.3 8.597 6.877 0 4.84-3.297 6.88-8.596 6.88H33.54v-13.75zm96.45 0h13.755c5.487 0 8.595 1.3 8.595 6.877 0 4.84-3.294 6.88-8.596 6.88h-13.75v-13.75zm-96.28 26.046h16.42c6.137 0 8.165 2.42 8.165 7.91 0 4.276-2.347 7.735-11.088 7.735H33.706V274.31zm96.45 0h16.42c6.138 0 8.166 2.42 8.166 7.91 0 4.276-2.352 7.735-11.09 7.735h-13.495V274.31z"/></svg>