<svg xmlns="http://www.w3.org/2000/svg" id="Ebene_1" viewBox="0 0 566.9 399.6"><style>.st0{fill:#E7394C;} .st1{fill:#0068B3;} .st2{fill:#CDC300;} .st3{fill:#7FD1F0;} .st4{fill:#FFDF57;} .st5{fill:#EBDB5F;} .st6{fill:#009EE2;} .st7{fill:#F59E4B;}</style><path d="M174.2 0v399.3h5.2V0h-5.2zm197.7 0v399.3h5.2V0h-5.2z" class="st0"/><path d="M561.6 0v399.3h5.2V0h-5.2zM0 .1v399.3h5.2V.1H0z" class="st1"/><path d="M305.4 0v399.3h5.2V0h-5.2zm128 .1v399.3h5.2V.1h-5.2zM50.9.3v399.3h5.2V.3h-5.2z" class="st2"/><path d="M76.1 0v399.3h5.2V0h-5.2zM278 0v399.3h5.2V0H278z" class="st3"/><path d="M118.6 0v399.3h5.2V0h-5.2zm359.9.3v399.3h5.1V.3h-5.1z" class="st4"/><path d="M217.1 0v399.3h5.2V0h-5.2z" class="st5"/><path d="M242.6 0v399.3h5.2V0h-5.2zm262.6 0v399.3h5.1V0h-5.1z" class="st6"/><path d="M337.6 0v399.3h5.2V0h-5.2z" class="st7"/><path d="M276.6 75.1c-14.1 0-27.1 6.6-27.1 22.6 0 9.8 6.7 16.3 19 18.2l13.8 2.1c4.9.8 7.5 2.6 7.5 5.9 0 .7-.2 1.4-.4 2l-.3.9c-1.5 2.5-4.8 3.8-7.8 4.4l-2.1.3c-.6.1-1.2.1-1.7.1-1 0-2 0-2.9-.1-.9-.1-1.7-.2-2.6-.4-5.1-1.1-9.3-3.8-13.7-7.7l-12.6 8.2c7.9 8.6 16.2 12.5 25.7 13.3 1.4.1 2.7.2 4.1.2 1.5 0 3.1 0 4.8-.2.8-.1 1.7-.1 2.6-.3 11.1-1.5 23-7 23-23.2 0-4-1.1-7.1-2.9-9.6-.4-.5-.9-.9-1.3-1.4-4.3-4.5-11.7-6.6-19.9-7.9l-6.3-1c-6.3-1-9.2-2.8-9.2-6.4 0-4.3 5.6-6.7 9.4-6.7 6.1 0 11.8 2.4 16.1 6.5.6.6 1.2 1.2 1.7 1.9l12.5-9c-7.5-8.3-18.4-12.7-29.4-12.7zm69.4 0c-15.5 0-25.8 9.2-30 21.7-.4 1-.7 2.1-.9 3.2-.8 3.2-1.2 6.6-1.2 10.1 0 16.3 9.5 30.8 26 34.2 2.4.5 4.9.8 7.6.8 11.2 0 21-6.6 26.6-16.9l-13.1-6.3c-2.6 5.9-9.1 9.3-13.6 9.3-13 0-16.9-11.4-16.9-21.1 0-.9 0-1.8.1-2.7.8-12.9 7.7-18.3 16.2-18.3 5 0 10 2.9 12.7 7.7.4.7.7 1.5 1 2.2l13.2-6.6c-6.1-11-14.7-17.3-27.7-17.3zM0 76.9v66.2h25.7c20.2 0 33.7-9.6 33.7-33.1S45.9 76.9 25.7 76.9H0zm69.4 0v66.2h51.5v-12.8h-35v-15.6H116v-12.8H85.9v-12H118v-13H69.4zm60.2 0v43.2c0 18.1 15.4 24.9 28 24.9 12.7 0 28.1-6.8 28.1-24.9V76.9h-16.6v41.8c0 7.4-2.9 12.9-11.5 12.9-1.1 0-2-.1-2.9-.3-6.3-1.1-8.5-6.1-8.5-12.6V76.9h-16.6zm63.6 0v12.9h17.3v53.3H227V89.8h17.3V76.9h-51.1zm187.7 0v66.2h16.5v-27.9h24.7v27.9h16.5V76.9h-16.5v23.8h-24.7V76.9h-16.5zm70.5 0v66.2H503v-12.8h-35v-15.6h30v-12.8h-30v-12h32.2v-13h-48.8zm-434.8 14H26c12.5 0 16.9 8.4 16.9 19.1 0 10.7-4.5 19.2-16.9 19.2h-9.4V90.9zm232.7 54.9c-21.1 0-33.5 16.3-33.5 34.9 0 18.6 12.4 35 33.5 35s33.4-16.4 33.4-35-12.3-34.9-33.4-34.9zM0 147.6v66.3h15v-41.7h.2l24.2 41.7H56v-66.3H41V190h-.2l-24.2-42.4H0zm87.2 0l-24.4 66.2h17.6l3.4-10.4h24.5l3.3 10.4h17.8l-25-66.2H87.2zm43.5 0v12.9H148v53.4h16.6v-53.4h17.3v-12.9h-51.2zm58.6 0v66.3h16.6v-66.3h-16.6zm103.4 0v66.3h15v-41.7h.2l24.2 41.7h16.6v-66.3h-15.1V190h-.2l-24.1-42.4h-16.6zm87.2 0l-24.5 66.2h17.7l3.4-10.4h24.4l3.4 10.4H422l-25-66.2h-17.1zm48.7 0v66.3h42.5v-14h-25.9v-52.3h-16.6zm-179.3 12.1c12.3 0 16.9 10.6 16.9 21 0 10.2-4.6 21.1-16.9 21.1-13 0-16.9-11.4-16.9-21.1 0-.9 0-1.8.1-2.7.8-12.9 7.7-18.3 16.8-18.3zm-153.4 4.1h.1l8.2 27.3H87.6l8.3-27.3zm292.6 0h.3l8.2 27.3h-16.6l8.1-27.3zm-113.3 52.7c-21.1 0-33.5 16.4-33.5 35s12.4 34.9 33.5 34.9 33.4-16.3 33.4-34.9-12.3-35-33.4-35zM0 218.3v66.2h30.1c2.1 0 4.1-.1 6-.3 13.2-1.2 21.1-6.7 21.1-18.7 0-3.7-1-6.6-2.8-8.9-.3-.4-.6-.7-.9-1-3-3.1-7.5-4.8-12.5-5.2v-.2c9-2 13.8-6.6 13.8-15 0-12.4-9-16.9-22.4-16.9H0zm67.1 0v66.2h16.6v-66.2H67.1zm29.4 0v66.2h30.1c2.1 0 4.1-.1 6-.3 13.2-1.2 21.1-6.7 21.1-18.7 0-3.7-1-6.6-2.8-8.9-.3-.4-.6-.7-.9-1-3-3.1-7.5-4.8-12.6-5.2v-.2c9-2 13.8-6.6 13.8-15 0-12.4-9.1-16.9-22.4-16.9H96.5zm67 0v66.2h42.4v-14h-25.8v-52.2h-16.6zm51.7 0v66.2h16.6v-66.2h-16.6zm98 0v12.8h17.3v53.4h16.6v-53.4h17.3v-12.8h-51.2zm58.7 0v66.2h16.6v-27.9H413v27.9h16.6v-66.2H413V242h-24.6v-23.7h-16.5zm70.5 0v66.2h51.5v-12.9h-35V256H489v-12.9h-30v-12h32.2v-12.8h-48.8zm61.6 0v66.2h16.5v-19.3l10-10.1 18.1 29.4H567l-24.8-41.1 24.1-25.1h-21.9l-23.7 26.4v-26.4H504zm-228.8 12.1c12.3 0 16.8 10.6 16.8 21.1 0 10.2-4.6 21-16.8 21-13 0-16.9-11.3-16.9-21 0-.9 0-1.9.1-2.8.8-12.9 7.7-18.3 16.8-18.3zm-259.4.2h13.8c5.5 0 8.6 1.3 8.6 6.9 0 4.8-3.3 6.9-8.6 6.9H15.8v-13.8zm96.5 0H126c5.5 0 8.6 1.3 8.6 6.9 0 4.8-3.3 6.9-8.6 6.9h-13.8l.1-13.8zm-96.3 26h16.4c6.1 0 8.2 2.4 8.2 7.9 0 4.3-2.3 7.7-11.1 7.7H16v-15.6zm96.5 0h16.4c6.1 0 8.2 2.4 8.2 7.9 0 4.3-2.4 7.7-11.1 7.7h-13.5v-15.6z"/></svg>