<svg xmlns="http://www.w3.org/2000/svg" viewBox="0 0 438 78"><style>.st0{fill:#1D1D1B;}</style><path d="M130.3 57.2c0 8.2-1.9 14.4-9.3 20.2l-8.1-6.8c4.2-4 5.6-7 5.7-11.9h-6.5V40.3h18.2v16.9zm-18-47.4h18v18.3h-18zM0 58.7V.7h43.6v13.8H17.5v10.2h24.1v13.8H17.5v20.2zm84.3 0V36h-17v22.7H49.4V.7h17.9v20.4h16.9V.7h18v58H84.3zm56.2 0V.7h24.8c11.4 0 16.3 1.2 19.8 3.5 5.1 3.4 7.6 8.9 7.6 16.1 0 6.7-2.6 12.5-7.3 15.9-4 2.9-9.3 4.3-18.3 4.3h-8.8v18.2h-17.8zM165.1 27c3.5 0 6-.5 7.4-1.6 1.3-1.1 1.8-2.7 1.8-4.6 0-1.8-.5-3.4-1.8-4.6-1.3-1.2-3.4-1.6-7.1-1.6h-7.1V27h6.8zm58.7-24.2v3.8h3.8v2h-3.8v5.7h-2.7V.7h7v2.1h-4.3zm11.8 11.5l-.2-1c-.9.7-1.8 1.3-3.1 1.3-2 0-3.1-1-3.1-2.9 0-2.1 1.7-3.5 5.2-3.5h.6v-.8c0-1-.6-1.5-1.9-1.5-1 0-2.2.3-3.1.6l-.3-1.6c1.2-.5 2.5-.9 4.1-.9 2.6 0 3.8 1.2 3.8 3.1v7.2h-2zm-.6-4.6h-.8c-2 0-2.5.6-2.5 1.6 0 .8.5 1.3 1.4 1.3.6 0 1.3-.3 1.9-.9v-2zm8.9 4.8c-2.7 0-4-1.7-4-5.1 0-3.2 1.6-5.4 4.2-5.4 1.3 0 2.3.5 3 1.3l-.9 1.3c-.5-.4-1-.7-1.7-.7-1.2 0-1.9 1.1-1.9 3.2 0 2.5.7 3.4 1.8 3.4.8 0 1.5-.3 2.1-.8l.8 1.3c-.7.8-1.8 1.5-3.4 1.5zm13.6-.2h-2.6c0-2.1.1-4.2.1-5.3 0-2.4-.5-3-1.4-3-.5 0-1.2.3-1.9.8v7.4h-2.6V0h2.6v5.1c.7-.6 1.7-1.1 2.8-1.1 2 0 3.1 1.3 3.1 4.6 0 1.2-.1 3.5-.1 5.7zm11.3 0h-2.6c0-2.1.1-4.2.1-5.3 0-2.4-.5-3-1.4-3-.5 0-1.2.3-1.9.8v7.4h-2.6V0h2.6v5.1c.7-.6 1.7-1.1 2.8-1.1 2 0 3.1 1.3 3.1 4.6 0 1.2-.1 3.5-.1 5.7zm6.8.2c-2.9 0-4.5-1.5-4.5-5.1 0-3.7 1.9-5.5 4.9-5.5 2.9 0 4.5 1.5 4.5 5.1 0 3.8-1.9 5.5-4.9 5.5zm.2-8.6c-1.2 0-2 .8-2 3.1 0 2.8.7 3.6 2 3.6 1.2 0 2-.8 2-3.1.1-2.9-.7-3.6-2-3.6zm10.6 8.6c-2.7 0-4-1.7-4-5.1 0-3.2 1.6-5.4 4.2-5.4 1.3 0 2.3.5 3 1.3l-.9 1.3c-.5-.4-1-.7-1.7-.7-1.2 0-1.9 1.1-1.9 3.2 0 2.5.7 3.4 1.8 3.4.8 0 1.5-.3 2.1-.8l.8 1.3c-.8.8-1.9 1.5-3.4 1.5zm13.5-.2h-2.6c0-2.1.1-4.2.1-5.3 0-2.4-.5-3-1.4-3-.5 0-1.2.3-1.9.8v7.4h-2.6V0h2.6v5.1c.7-.6 1.7-1.1 2.8-1.1 2 0 3.1 1.3 3.1 4.6 0 1.2-.1 3.5-.1 5.7zm5.3.2c-1.1 0-2.2-.3-3.1-.8l.2-1.4c1.2.3 1.8.3 2.5.3 1.3 0 1.8-.5 1.8-1.1 0-.7-.3-1-1.8-1.5-1.9-.7-2.7-1.5-2.7-3 0-1.8 1.5-3.1 3.7-3.1.9 0 1.8.2 2.8.7l-.3 1.4c-.8-.2-1.4-.3-2-.3-1 0-1.5.5-1.5 1 0 .6.3.9 1.8 1.4 2 .7 2.7 1.6 2.7 3.1 0 1.9-1.5 3.3-4.1 3.3zm9.8 0c-2.7 0-4-1.7-4-5.1 0-3.2 1.6-5.4 4.2-5.4 1.3 0 2.3.5 3 1.3l-.9 1.3c-.5-.4-1-.7-1.7-.7-1.2 0-1.9 1.1-1.9 3.2 0 2.5.7 3.4 1.8 3.4.8 0 1.5-.3 2.1-.8l.8 1.3c-.8.8-1.9 1.5-3.4 1.5zm13.5-.2h-2.6c0-2.1.1-4.2.1-5.3 0-2.4-.5-3-1.4-3-.5 0-1.2.3-1.9.8v7.4h-2.6V0h2.6v5.1c.7-.6 1.7-1.1 2.8-1.1 2 0 3.1 1.3 3.1 4.6 0 1.2-.1 3.5-.1 5.7zm9.2 0l-.2-1.1c-.9.8-1.9 1.3-3 1.3-2.1 0-3.1-1.3-3.1-4.6 0-1.3.1-3.5.1-5.7h2.6c0 2-.1 4.1-.1 5.3 0 2.4.5 2.9 1.4 2.9.6 0 1.2-.3 1.9-.8V4.2h2.6v10.1h-2.2zm7 .2c-1.3 0-2-.4-2-2V0h2.6v11.4c0 1.1.1 1.3.7 1.3h.5l.1 1.5c-.5.2-1.1.3-1.9.3zm5.8-4.7v.1c0 1.9.8 2.6 2.3 2.6.9 0 2.1-.2 3.3-.6l.4 1.5c-1.2.6-2.7 1.1-4.2 1.1-2.6 0-4.4-1.3-4.4-5 0-3.6 1.8-5.5 4.6-5.5 2.6 0 4.3 1.5 4 5.8h-6zm3.4-1.7c0-1.6-.5-2.4-1.6-2.4s-1.7 1-1.8 2.4h3.4zm13.7 1.6h-.6v4.6h-2.7V.7h4c3.7 0 5 1.7 5 4.3 0 2.7-1.5 4.7-5.7 4.7zm.2-7.1h-.8v5.1h.8c1.8 0 2.6-.9 2.6-2.5 0-1.7-.7-2.6-2.6-2.6zm11.3 11.9c-2.9 0-4.5-1.5-4.5-5.1 0-3.7 1.9-5.5 4.9-5.5 2.9 0 4.5 1.5 4.5 5.1 0 3.8-1.9 5.5-4.9 5.5zm.2-8.6c-1.2 0-2 .8-2 3.1 0 2.8.7 3.6 2 3.6 1.2 0 2-.8 2-3.1 0-2.9-.7-3.6-2-3.6zm9.7 8.6c-1.9 0-2.6-.7-2.6-2.6V6h-1.3V4.2h1.4c.2-.9.4-1.8.6-2.9h1.9v2.9h2.2V6H389v5.2c0 1 .2 1.4.9 1.4.3 0 .7 0 1.4-.2l.2 1.5c-.9.4-1.7.6-2.5.6zm6.9 0c-1.1 0-2.2-.3-3.1-.8l.2-1.4c1.2.3 1.8.3 2.5.3 1.3 0 1.8-.5 1.8-1.1 0-.7-.3-1-1.8-1.5-1.9-.7-2.7-1.5-2.7-3 0-1.8 1.5-3.1 3.7-3.1.9 0 1.8.2 2.8.7l-.2 1.4c-.8-.2-1.4-.3-2-.3-1 0-1.5.5-1.5 1 0 .6.3.9 1.8 1.4 2 .7 2.7 1.6 2.7 3.1 0 1.9-1.6 3.3-4.2 3.3zm12.4-.2l-.2-1c-.8.7-1.8 1.3-2.8 1.3-2.4 0-3.5-2.2-3.5-4.9 0-4.1 2.2-5.7 5-5.7.4 0 .9 0 1.1.1V0h2.6v14.3h-2.2zm-.5-8.3c-.4-.1-.8-.2-1.2-.2-1.3 0-2.2 1.1-2.2 3.5 0 2.1.6 3.2 1.7 3.2.5 0 1.1-.3 1.8-.8V6zm11.3 8.3l-.2-1c-.9.7-1.8 1.3-3.1 1.3-2 0-3.1-1-3.1-2.9 0-2.1 1.7-3.5 5.2-3.5h.6v-.8c0-1-.6-1.5-1.9-1.5-1 0-2.2.3-3.1.6l-.3-1.6c1.2-.5 2.5-.9 4.1-.9 2.6 0 3.8 1.2 3.8 3.1v7.2h-2zm-.6-4.6h-.8c-2 0-2.5.6-2.5 1.6 0 .8.5 1.3 1.4 1.3.6 0 1.3-.3 1.9-.9v-2zm19.4 4.6h-2.6c0-2 .1-4.1.1-5.3 0-2.4-.4-3-1.3-3-.5 0-1.3.4-1.9.9.1.3.1.8.1 1.5v5.8h-2.6V9c0-2.4-.4-3-1.3-3-.5 0-1.2.3-1.8.8v7.4H424v-10h2.1l.2 1.1c.8-.7 1.8-1.3 3-1.3s2.1.6 2.5 1.5c1-.9 2-1.5 3.2-1.5 2 0 3 1.3 3 4.6 0 1.2-.1 3.5-.1 5.7zm-212 22.4c-3.2 0-4.9-1.4-4.9-4.8v-9h2.7v8.7c0 2.3.7 3.1 2.4 3.1 1.5 0 2.4-.7 2.4-3v-8.9h2.7v8.7c0 3.8-2.2 5.2-5.3 5.2zm16.8-.2h-2.6c0-2 .1-4.1.1-5.3 0-2.4-.5-2.9-1.4-2.9-.5 0-1.2.3-1.9.8v7.4h-2.6V26.4h2.1l.2 1.1c.9-.8 1.9-1.3 3.1-1.3 2 0 3.1 1.3 3.1 4.6 0 1.2-.1 3.5-.1 5.7zm4.3-11.4c-1.2 0-1.6-.3-1.6-1.4 0-1 .3-1.4 1.6-1.4s1.5.3 1.5 1.4c0 1-.3 1.4-1.5 1.4zm-1.4 11.4V26.4h2.6v10.1h-2.6zm10.8 0H253l-2.9-10.1h2.8l1.6 5.7.4 2c.8-2.7 1.4-5.2 1.7-7.7h2.7c-.5 3.5-1.5 6.9-2.9 10.1zm6.8-4.6v.1c0 1.9.8 2.6 2.3 2.6.9 0 2.1-.2 3.3-.6l.4 1.5c-1.2.6-2.7 1.1-4.2 1.1-2.6 0-4.4-1.3-4.4-5 0-3.6 1.8-5.5 4.6-5.5 2.6 0 4.3 1.5 4 5.8h-6zm3.5-1.6c0-1.6-.5-2.4-1.6-2.4s-1.7 1-1.8 2.4h3.4zm10.5-1.6c-.4-.1-.7-.1-.9-.1-.6 0-1 .4-2 1.5v6.4h-2.6V26.4h2.1l.2 1.6c1-1.4 1.7-1.8 2.4-1.8.3 0 .6.1 1 .2l-.2 2.3zm4.5 8c-1.1 0-2.2-.3-3.1-.8l.2-1.4c1.1.3 1.8.3 2.5.3 1.3 0 1.8-.5 1.8-1.1 0-.7-.3-1-1.8-1.5-1.9-.7-2.7-1.5-2.7-3 0-1.8 1.5-3.1 3.7-3.1.9 0 1.8.2 2.8.7l-.3 1.3c-.8-.2-1.4-.3-2-.3-1 0-1.5.5-1.5 1 0 .6.3.9 1.8 1.4 2 .7 2.7 1.6 2.7 3.1 0 2-1.5 3.4-4.1 3.4zm7.6-11.6c-1.2 0-1.6-.3-1.6-1.4 0-1 .3-1.4 1.6-1.4s1.5.3 1.5 1.4c0 1-.3 1.4-1.5 1.4zm-1.4 11.4V26.4h2.6v10.1h-2.6zm8.3.2c-1.9 0-2.6-.7-2.6-2.6v-5.8h-1.3v-1.8h1.4c.2-.9.4-1.8.6-2.9h1.9v2.9h2.2v1.8h-2.2v5.2c0 1 .2 1.4.9 1.4.3 0 .7 0 1.4-.2l.2 1.5c-.9.3-1.7.5-2.5.5zm4.9 3.4c-.4 0-1-.1-1.5-.4v-1.5c.3 0 .8.1 1 .1.6 0 1.1-.1 1.5-.4.4-.4.6-.7.6-1.2 0-.4-.1-1-.5-2l-2.5-8.2h2.8L304 32c.3 1 .5 1.9.4 2.5.8-2.4 1.5-5.5 1.7-8.2h2.7c-1.6 10.6-4.9 13.8-7.7 13.8zm17.9-3.4c-2.9 0-4.5-1.5-4.5-5.1 0-3.7 1.9-5.5 4.9-5.5 2.9 0 4.5 1.5 4.5 5.1 0 3.8-1.9 5.5-4.9 5.5zm.2-8.6c-1.2 0-2 .8-2 3.1 0 2.8.7 3.6 2 3.6 1.2 0 2-.8 2-3.1 0-2.9-.7-3.6-2-3.6zm12.1-4c-.4-.2-.8-.2-1.2-.2-.8 0-1.1.4-1.1 1.3v1.3h1.8v1.8H329v8.3h-2.6v-8.3h-1.3v-1.8h1.3v-1.2c0-2 .8-3.2 2.8-3.2 1 0 1.8.3 2.4.6l-.3 1.4zM228 58.7c-.2-.8-.4-1.9-.6-2.7h-4.5c-.2.8-.4 1.8-.6 2.7h-2.6c1-4.5 2.3-9.2 3.8-13.6h3.6c1.6 4.7 2.8 9 3.8 13.6H228zm-2.9-11.2c-.6 1.9-1.2 4.4-1.8 6.5h3.6c-.5-2.1-1.1-4.4-1.8-6.5zm11.3 11.4c-.3 0-.7 0-1.1-.1v3.3h-2.6V48.6h2.1l.2 1c.8-.7 1.8-1.3 2.8-1.3 2.4 0 3.6 2.2 3.6 4.9.1 4-2.1 5.7-5 5.7zm.8-8.6c-.5 0-1.1.3-1.8.8v5.6c.3.1.8.2 1.2.2 1.3 0 2.2-1.1 2.2-3.5 0-1.9-.6-3.1-1.6-3.1zm10.3 8.6c-.3 0-.7 0-1.1-.1v3.3h-2.6V48.6h2.1l.2 1c.8-.7 1.8-1.3 2.8-1.3 2.4 0 3.6 2.2 3.6 4.9 0 4-2.1 5.7-5 5.7zm.7-8.6c-.5 0-1.1.3-1.8.8v5.6c.3.1.8.2 1.2.2 1.3 0 2.2-1.1 2.2-3.5.1-1.9-.5-3.1-1.6-3.1zm8.7 8.5c-1.3 0-2-.4-2-2V44.4h2.6v11.4c0 1.1.1 1.3.7 1.3h.5l.1 1.5c-.5.1-1.1.2-1.9.2zm5.2-11.5c-1.2 0-1.6-.3-1.6-1.4 0-1 .3-1.4 1.6-1.4s1.5.3 1.5 1.4c0 1-.3 1.4-1.5 1.4zm-1.3 11.4V48.6h2.6v10.1h-2.6zm7.6-4.6v.1c0 1.9.8 2.6 2.3 2.6.9 0 2.1-.2 3.3-.6l.4 1.5c-1.2.6-2.7 1.1-4.2 1.1-2.6 0-4.4-1.3-4.4-5 0-3.6 1.8-5.5 4.6-5.5 2.6 0 4.3 1.5 4 5.8h-6zm3.4-1.6c0-1.6-.5-2.4-1.6-2.4s-1.7 1-1.8 2.4h3.4zm11.1 6.2l-.2-1c-.8.7-1.8 1.3-2.8 1.3-2.4 0-3.5-2.2-3.5-4.9 0-4.1 2.2-5.7 5-5.7.4 0 .9 0 1.1.1v-4h2.6v14.3h-2.2zm-.5-8.3c-.4-.1-.8-.2-1.2-.2-1.3 0-2.2 1.1-2.2 3.5 0 2.1.6 3.2 1.7 3.2.5 0 1.1-.3 1.8-.8v-5.7zm14.2 8.5c-1.6 0-2.9-.5-4.1-1.3l.6-1.4c1.1.4 2.2.7 2.9.7 1.4 0 2.3-.6 2.3-1.8 0-2.7-5.7-2.1-5.7-6.4 0-2.3 1.8-3.8 4.4-3.8 1.3 0 2.5.3 3.6 1.1l-.6 1.4c-.9-.3-1.8-.5-2.5-.5-1.4 0-2 .6-2 1.6 0 2.7 5.8 2.2 5.8 6.4 0 2.2-1.7 4-4.7 4zm10.4 0c-2.7 0-4-1.7-4-5.1 0-3.2 1.6-5.4 4.2-5.4 1.3 0 2.3.5 3 1.3l-.9 1.3c-.5-.4-1-.7-1.7-.7-1.2 0-1.9 1.1-1.9 3.2 0 2.5.7 3.4 1.8 3.4.8 0 1.5-.3 2.1-.8l.8 1.3c-.7.8-1.8 1.5-3.4 1.5zm6.7-11.6c-1.2 0-1.6-.3-1.6-1.4 0-1 .3-1.4 1.6-1.4s1.5.3 1.5 1.4c.1 1-.2 1.4-1.5 1.4zm-1.3 11.4V48.6h2.6v10.1h-2.6zm7.6-4.6v.1c0 1.9.8 2.6 2.3 2.6.9 0 2.1-.2 3.3-.6l.4 1.5c-1.2.6-2.7 1.1-4.2 1.1-2.6 0-4.4-1.3-4.4-5 0-3.6 1.8-5.5 4.6-5.5 2.6 0 4.3 1.5 4 5.8h-6zm3.5-1.6c0-1.6-.5-2.4-1.6-2.4s-1.7 1-1.8 2.4h3.4zm13.4 6.2h-2.6c0-2 .1-4.1.1-5.3 0-2.4-.5-2.9-1.4-2.9-.5 0-1.2.3-1.9.8v7.4h-2.6V48.6h2.1l.2 1.1c.9-.8 1.9-1.3 3.1-1.3 2 0 3.1 1.3 3.1 4.6 0 1.2-.1 3.5-.1 5.7zm6.4.2c-2.7 0-4-1.7-4-5.1 0-3.2 1.6-5.4 4.2-5.4 1.3 0 2.3.5 3 1.3l-.9 1.3c-.5-.4-1-.7-1.7-.7-1.2 0-1.9 1.1-1.9 3.2 0 2.5.7 3.4 1.8 3.4.8 0 1.5-.3 2.1-.8l.8 1.3c-.8.8-1.9 1.5-3.4 1.5zm7.1-4.8v.1c0 1.9.8 2.6 2.3 2.6.9 0 2.1-.2 3.3-.6l.4 1.5c-1.2.6-2.7 1.1-4.2 1.1-2.6 0-4.4-1.3-4.4-5 0-3.6 1.8-5.5 4.6-5.5 2.6 0 4.3 1.5 4 5.8h-6zm3.5-1.6c0-1.6-.5-2.4-1.6-2.4s-1.7 1-1.8 2.4h3.4zm7.4 6.4c-1.1 0-2.2-.3-3.1-.8l.2-1.4c1.1.3 1.8.3 2.5.3 1.3 0 1.8-.5 1.8-1.1 0-.7-.3-1-1.8-1.5-1.9-.7-2.7-1.5-2.7-3 0-1.8 1.5-3.1 3.7-3.1.9 0 1.8.2 2.8.7l-.3 1.3c-.8-.2-1.4-.3-2-.3-1 0-1.5.5-1.5 1 0 .6.3.9 1.8 1.4 2 .7 2.7 1.6 2.7 3.1 0 2-1.5 3.4-4.1 3.4z" class="st0"/></svg>